<?xml version="1.0" encoding="utf-8"?>
<!-- Generator: Adobe Illustrator 21.0.2, SVG Export Plug-In . SVG Version: 6.00 Build 0)  -->
<svg version="1.1" id="Layer_1" xmlns="http://www.w3.org/2000/svg" xmlns:xlink="http://www.w3.org/1999/xlink" x="0px" y="0px"
	 viewBox="0 0 2279.4 277.2" style="enable-background:new 0 0 2279.4 277.2;" xml:space="preserve">
<style type="text/css">
	.st0{fill:#CC2229;}
</style>
<g>
	<path class="st0" d="M690.1,277.2c-145.7,0-210.8-56.3-210.8-139.6C479.2,56.8,544.4,0,690.1,0c145.1,0,210.3,56.5,210.3,137.6
		C900.3,220.9,835.4,277.2,690.1,277.2z M1643.8,267l-258.4-0.2l0.1-33.9c0,0,26.2-3.1,36.9-4.5c10.6-1.4,14.8-10.5,14.8-20.5
		c0-10,0.1-125.7,0.1-137.5c0-11.7-5.4-18.5-16.9-20.2c-11.5-1.6-35.3-4-35.3-4V10h258.7c117.4,0,168.2,57.1,168.2,125.2
		C1812,210.7,1761.2,267,1643.8,267L1643.8,267z M911.9,267.9v-35.2c0,0,30.9-3.4,35.7-4.3c11.7-2,15.9-9.8,15.8-22V71.8
		c0-13.1-5.8-20.4-18.3-21.8c-4-0.4-33.3-3.8-33.3-3.8V9.9c0,0,179.4-0.1,182.1-0.1c9.8,0,16.4,4.7,21.6,11.3
		c1,1.3,136,179.7,136,179.7s0.1-115.4,0-127.5c0-12.2-4.3-21.2-16.6-22.7c-3.9-0.5-34.9-4.1-34.9-4.1V9.9h165.1v36.2
		c0,0-28.9,3.1-35,4.1c-14.2,2.2-16.5,11.8-16.6,22c-0.1,10.2,0,195.7,0,195.7l-129.5,0c-8.6,0-17.1-3.9-21.8-9.9
		c-3.1-3.9-136.9-181-136.9-181s-0.1,119.4,0,131.2c0.1,11.8,5.8,19.1,16.3,20.4c10.5,1.3,35.3,4,35.3,4v35.2L911.9,267.9
		L911.9,267.9z M0.1,267.8L0,233.4c0,0,21.1-2.5,34.2-4.1c13.1-1.6,17.5-10,17.5-24.7V73.7c0-13.2-3.3-22.3-17.1-24.4
		c-4.8-0.7-34.4-4-34.4-4l0-35.4h206.4L206.3,45c0,0-30.8,3.5-34.8,4.1c-10.5,1.5-16.5,8.3-16.5,23.1V113H314V73
		c0-12.8-3.8-22.4-15.8-24c-12-1.6-35.9-4.3-35.9-4.3l0.1-34.9h206.4L468.6,45c0,0-24.6,2.9-35.5,4.2c-10.9,1.3-15.9,9.7-15.9,23.6
		c0,2.4-0.1,119.5,0,134.3c0.1,14.8,8.3,20.3,15.1,21.2c6.8,0.9,36.5,4.2,36.5,4.2l-0.1,35.3H262.4l0.2-35.4c0,0,31.4-3.5,35.4-4.3
		c14.1-2.8,16-12.4,16-24.1c-0.1-11.7,0-39.4,0-39.4H154.9c0,0-0.1,23.9,0,41.3c0.1,17.4,8.3,22.3,16.2,23.4
		c10,1.3,35.4,4.1,35.4,4.1l0,34.4L0.1,267.8L0.1,267.8L0.1,267.8z M1693.4,138.6c0-64.9-26.2-79.3-89.1-79.3h-66v157.8h66
		C1667.2,217.1,1693.4,204.1,1693.4,138.6z M781.8,138.5c0-66.9-33.4-88.9-92-88.9s-92,22-92,88.9c0,67.8,33.5,89.4,92,89.4
		S781.8,206.2,781.8,138.5z M1956.8,267.9h-165.1v-35.2l35.1-4.7c12.3-1.6,17.2-11.4,18.6-13.6c1.4-2.2,80.5-130.4,87.4-141.9
		c6.9-11.5-0.4-20.2-9.4-21.9c-6.3-1.1-45.7-5.2-45.7-5.2l0-35.7h201.5c12.6,0.4,20.4,14.5,20.4,14.5l115.7,177.1
		c9.4,14.3,16.5,24.7,28,26.4c11.5,1.7,36,4.5,36,4.5l0.2,35.4h-223.1l0.2-35c0,0,14.7-1.9,28.1-3.7c13.4-1.8,24.7-7.6,13.6-23.9
		c-11.1-16.3-10.9-16.2-10.9-16.2l-158.1,0.4c0,0-4.9,7.4-12.6,19.3c-7.7,11.9,0.4,19.4,11.8,20.8l28.3,3.5L1956.8,267.9
		L1956.8,267.9L1956.8,267.9z M1958.1,142.8l99.6,0.5l-50.4-79.6L1958.1,142.8z"/>
</g>
</svg>
